<svg width="21" height="20" viewBox="0 0 21 20" fill="none" xmlns="http://www.w3.org/2000/svg">
<path fill-rule="evenodd" clip-rule="evenodd" d="M1.07933 4.73636C0.710918 5.33756 0.710924 6.15595 0.710938 7.79274L0.710971 12.2095C0.710983 13.8463 0.71099 14.6647 1.07941 15.2659C1.28555 15.6023 1.56839 15.8851 1.90479 16.0912C2.50599 16.4596 3.32437 16.4596 4.96114 16.4596H16.0449C17.6816 16.4596 18.5 16.4596 19.1012 16.0912C19.4376 15.8851 19.7205 15.6022 19.9266 15.2658C20.295 14.6646 20.295 13.8463 20.295 12.2095V7.79266C20.295 6.15586 20.295 5.33747 19.9266 4.73627C19.7205 4.39987 19.4376 4.11703 19.1012 3.91088C18.5 3.54247 17.6816 3.54247 16.0448 3.54248L4.96109 3.54253C3.3243 3.54254 2.50591 3.54255 1.90471 3.91096C1.56831 4.11711 1.28547 4.39995 1.07933 4.73636ZM9.00004 10.0011C9.00004 9.17262 9.67164 8.50102 10.5001 8.50102C11.3286 8.50102 12.0002 9.17262 12.0002 10.0011C12.0002 10.8295 11.3286 11.5011 10.5001 11.5011C9.67164 11.5011 9.00004 10.8295 9.00004 10.0011ZM10.5001 7.50098C9.11933 7.50098 8 8.62031 8 10.0011C8 11.3818 9.11933 12.5012 10.5001 12.5012C11.8809 12.5012 13.0002 11.3818 13.0002 10.0011C13.0002 8.62031 11.8809 7.50098 10.5001 7.50098ZM19.4609 7.08445C19.4609 7.42964 19.1811 7.70947 18.8359 7.70947H18.4192C16.9234 7.70947 15.7108 6.49686 15.7108 5.00103C15.7108 4.65584 15.9906 4.376 16.3358 4.376C16.681 4.376 16.9608 4.65584 16.9608 5.00103C16.9608 5.80648 17.6138 6.45942 18.4192 6.45942H18.8359C19.1811 6.45942 19.4609 6.73926 19.4609 7.08445ZM18.8359 12.293C19.1811 12.293 19.4609 12.5728 19.4609 12.918C19.4609 13.2632 19.1811 13.543 18.8359 13.543H18.4192C17.6138 13.543 16.9608 14.196 16.9608 15.0014C16.9608 15.3466 16.681 15.6264 16.3358 15.6264C15.9906 15.6264 15.7108 15.3466 15.7108 15.0014C15.7108 13.5056 16.9234 12.293 18.4192 12.293H18.8359ZM1.54297 7.08442C1.54297 7.42961 1.8228 7.70944 2.16799 7.70944H2.58468C4.08051 7.70944 5.29312 6.49683 5.29312 5.001C5.29312 4.65581 5.01329 4.37597 4.6681 4.37597C4.3229 4.37597 4.04307 4.65581 4.04307 5.001C4.04307 5.80645 3.39013 6.45939 2.58468 6.45939H2.16799C1.8228 6.45939 1.54297 6.73923 1.54297 7.08442ZM2.16799 12.2929C1.8228 12.2929 1.54297 12.5728 1.54297 12.9179C1.54297 13.2631 1.8228 13.543 2.16799 13.543H2.58468C3.39013 13.543 4.04307 14.1959 4.04307 15.0014C4.04307 15.3466 4.3229 15.6264 4.6681 15.6264C5.01329 15.6264 5.29312 15.3466 5.29312 15.0014C5.29312 13.5055 4.08051 12.2929 2.58468 12.2929H2.16799Z" fill="#34C759"/>
</svg>
