<svg width="26" height="26" viewBox="0 0 26 26" fill="none" xmlns="http://www.w3.org/2000/svg">
<path fill-rule="evenodd" clip-rule="evenodd" d="M2.10532 2.63157C3.07437 1.47876 4.56515 0.916687 6.5013 0.916687H13.0013C14.9375 0.916687 16.4282 1.47876 17.3973 2.63157C18.0512 3.40945 18.3717 4.34606 18.505 5.29317C18.7801 5.3067 19.0403 5.32449 19.2861 5.34787C20.3463 5.44868 21.2699 5.6622 22.1005 6.17118C22.9414 6.68653 23.6485 7.3936 24.1638 8.23456C24.6728 9.06515 24.8863 9.9888 24.9871 11.0489C25.0378 11.5822 25.0622 12.1826 25.0739 12.8579C25.0793 12.9049 25.082 12.9523 25.082 13V13.5701C25.0848 13.9983 25.0848 14.4535 25.0848 14.9373V15.0001V15.3332V15.396C25.0848 15.8798 25.0848 16.335 25.082 16.7632V17.3334C25.082 17.3818 25.0793 17.4296 25.0739 17.4766C25.0622 18.1515 25.0378 18.7514 24.9871 19.2845C24.8863 20.3446 24.6728 21.2683 24.1638 22.0989C23.6485 22.9398 22.9414 23.6469 22.1004 24.1622C21.2698 24.6712 20.3462 24.8847 19.286 24.9855C18.258 25.0833 16.981 25.0833 15.3975 25.0832H15.3348H10.6681H10.6053C9.02186 25.0833 7.74482 25.0833 6.7168 24.9855C5.65664 24.8847 4.73297 24.6712 3.90238 24.1622C3.06141 23.6469 2.35434 22.9398 1.839 22.0988C1.33001 21.2682 1.11652 20.3445 1.01573 19.2844C0.917993 18.2564 0.918019 16.9794 0.918052 15.3959L0.918053 15.3331L0.918141 6.52096L0.917969 6.50002C0.917969 5.17444 1.17236 3.74145 2.10532 2.63157ZM22.5339 11.75H19.4987C17.6117 11.75 16.082 13.2797 16.082 15.1667C16.082 17.0537 17.6117 18.5834 19.4987 18.5834H22.5339C22.5241 18.746 22.5123 18.9004 22.4983 19.0478C22.4149 19.925 22.26 20.4208 22.0322 20.7926C21.723 21.2972 21.2988 21.7214 20.7942 22.0306C20.4224 22.2584 19.9265 22.4133 19.0494 22.4967C18.1536 22.5819 16.9957 22.5832 15.3348 22.5832H10.6681C9.00712 22.5832 7.8492 22.5819 6.95344 22.4967C6.07627 22.4133 5.5804 22.2584 5.20864 22.0306C4.70405 21.7214 4.27981 21.2972 3.97061 20.7926C3.74279 20.4208 3.5879 19.9249 3.50451 19.0478C3.41934 18.152 3.41804 16.9941 3.41805 15.3332L3.41813 7.75002H10.0561L15.3349 7.7501C16.9958 7.75012 18.1537 7.75146 19.0494 7.83664C19.9266 7.92005 20.4225 8.07495 20.7942 8.30277C21.2988 8.61198 21.723 9.03622 22.0322 9.5408C22.26 9.91256 22.4149 10.4084 22.4983 11.2856C22.5123 11.4329 22.5241 11.5874 22.5339 11.75ZM15.9563 5.25002H10.0619L3.5463 5.24992C3.64801 4.8245 3.8081 4.49114 4.01902 4.24022C4.36833 3.82466 5.04422 3.41669 6.5013 3.41669H13.0013C14.4584 3.41669 15.1343 3.82466 15.4836 4.24022C15.6945 4.49116 15.8546 4.82455 15.9563 5.25002ZM18.582 15.1667C18.582 14.6604 18.9924 14.25 19.4987 14.25H22.582V16.0834H19.4987C18.9924 16.0834 18.582 15.673 18.582 15.1667Z" fill="black"/>
</svg>
