<svg width="25" height="24" viewBox="0 0 25 24" fill="none" xmlns="http://www.w3.org/2000/svg">
<path d="M11.8061 20C9.57864 20 8.46491 20 7.53521 19.4986C6.60551 18.9971 6.01523 18.0781 4.83468 16.24L4.15387 15.18C3.16067 13.6336 2.66406 12.8604 2.66406 12C2.66406 11.1396 3.16067 10.3664 4.15387 8.81999L4.83468 7.75999C6.01523 5.92189 6.60551 5.00284 7.53521 4.50141C8.46491 3.99998 9.57864 3.99998 11.8061 3.99998L15.864 3.99992C18.4827 3.99989 19.7921 3.99987 20.754 4.5893C21.2923 4.91913 21.7448 5.37165 22.0746 5.90987C22.6641 6.87176 22.6641 8.1811 22.6641 10.7998C22.6641 11.602 22.6641 12.4119 22.6641 13.201C22.6641 15.8191 22.6641 17.1281 22.0746 18.09C21.7448 18.6282 21.2923 19.0807 20.7541 19.4105C19.7922 20 18.4828 20 15.8641 20H11.8061Z" stroke="black" stroke-width="2"/>
<path d="M16.164 9.50004L11.1641 14.5M11.164 9.50002L16.164 14.5" stroke="black" stroke-width="2" stroke-linecap="round"/>
</svg>
