<svg width="29" height="29" viewBox="0 0 29 29" fill="none" xmlns="http://www.w3.org/2000/svg">
<path d="M27.5428 11.075C27.5428 9.31944 27.5428 8.44165 27.1215 7.81109C26.9391 7.53811 26.7047 7.30373 26.4317 7.12134C25.8012 6.70001 24.9234 6.70001 23.1678 6.70001L5.66839 6.70002C3.91266 6.70002 3.03479 6.70002 2.40421 7.1214C2.13122 7.30381 1.89684 7.53822 1.71445 7.81122C1.29314 8.44185 1.29322 9.31971 1.29339 11.0754L1.29408 18.0754C1.29425 19.8309 1.29433 20.7086 1.71567 21.3391C1.89807 21.612 2.13244 21.8464 2.40541 22.0287C3.03594 22.45 3.91365 22.45 5.66908 22.45H23.1678C24.9234 22.45 25.8012 22.45 26.4317 22.0287C26.7047 21.8463 26.9391 21.6119 27.1215 21.3389C27.5428 20.7084 27.5428 19.8306 27.5428 18.075V11.075ZM8.62093 20.7L3.0428 15.9203V13.2297L8.62093 8.45001H19.5675C19.8415 8.45001 19.9785 8.45001 20.1074 8.4851C20.1644 8.50061 20.2199 8.52114 20.2733 8.54645C20.394 8.60371 20.4981 8.69285 20.7061 8.87113L25.1815 12.7059C25.4387 12.9263 25.5673 13.0365 25.651 13.1765C25.688 13.2382 25.7181 13.3038 25.741 13.372C25.7928 13.5266 25.7928 13.696 25.7928 14.0348V15.9203L20.2147 20.7H8.62093ZM18.7928 14.575C18.7928 15.4403 18.5362 16.2862 18.0555 17.0056C17.5747 17.7251 16.8914 18.2859 16.092 18.617C15.2926 18.9481 14.4129 19.0348 13.5643 18.8659C12.7156 18.6971 11.9361 18.2805 11.3242 17.6686C10.7123 17.0567 10.2957 16.2772 10.1269 15.4285C9.95805 14.5799 10.0447 13.7002 10.3758 12.9008C10.707 12.1013 11.2677 11.4181 11.9872 10.9373C12.7066 10.4566 13.5525 10.2 14.4178 10.2C15.5781 10.2 16.6909 10.6609 17.5114 11.4814C18.3319 12.3019 18.7928 13.4147 18.7928 14.575Z" fill="black"/>
</svg>
