<svg width="21" height="20" viewBox="0 0 21 20" fill="none" xmlns="http://www.w3.org/2000/svg">
<path d="M19.0778 5.81664C18.3695 5.03331 16.1861 4.64164 14.4695 4.64164H14.2695V4.60831C14.2695 3.20831 14.2695 1.47498 11.1361 1.47498H9.86946C6.73613 1.47498 6.73613 3.21664 6.73613 4.60831V4.64998H6.53613C4.81113 4.64998 2.63613 5.04164 1.9278 5.82498C1.1028 6.74164 1.1278 7.97498 1.21113 8.81664L1.21946 8.87497L1.28401 9.55271C1.2959 9.67752 1.36312 9.79026 1.46803 9.85891C1.66786 9.98969 2.00232 10.2053 2.2028 10.3166C2.31946 10.3916 2.44446 10.4583 2.56946 10.525C3.99446 11.3083 6.56113 11.8333 8.1528 12.0916C8.2278 12.875 8.56946 13.7916 10.3945 13.7916C12.2195 13.7916 12.5778 12.8833 12.6361 12.075C14.3361 11.8 16.9778 11.2083 18.4611 10.3416C18.5111 10.3166 18.5445 10.2916 18.5861 10.2666C18.9167 10.0798 19.2597 9.84954 19.5723 9.62401C19.6665 9.55607 19.7268 9.45102 19.7396 9.33559L19.7528 9.21664L19.7945 8.82498C19.8028 8.77497 19.8028 8.73331 19.8111 8.67497C19.8778 7.83331 19.8611 6.68331 19.0778 5.81664ZM11.4111 11.525C11.4111 12.4083 11.4111 12.5416 10.3861 12.5416C9.36113 12.5416 9.36113 12.3833 9.36113 11.5333V10.4833H11.4111V11.525ZM7.9278 4.64164V4.60831C7.9278 3.19164 7.9278 2.66664 9.86946 2.66664H11.1361C13.0778 2.66664 13.0778 3.19998 13.0778 4.60831V4.64998H7.9278V4.64164Z" fill="#5856D6"/>
<path d="M18.9417 11.3558C19.2306 11.2473 19.5333 11.4787 19.5054 11.7861L19.1992 15.1583C19.0242 16.825 17.3409 18.525 13.6742 18.525H7.32422C3.65755 18.525 1.97422 16.825 1.79922 15.1667L1.50849 11.9686C1.48088 11.6649 1.77654 11.4342 2.06404 11.5358C3.21189 11.9418 5.67494 12.7967 6.89661 13.0989C7.03401 13.1329 7.14403 13.2311 7.20398 13.3593C7.70979 14.4411 8.80681 15.0167 10.3909 15.0167C11.9593 15.0167 13.0702 14.4189 13.5777 13.3345C13.6377 13.2062 13.7479 13.108 13.8853 13.0737C15.1716 12.7524 17.7537 11.8022 18.9417 11.3558Z" fill="#5856D6"/>
</svg>
