<svg width="28" height="28" viewBox="0 0 28 28" fill="none" xmlns="http://www.w3.org/2000/svg">
<g id="HouseLine">
<path id="Vector" opacity="0.2" d="M16.625 23.625V16.625H11.375V23.625H4.37501V12.6328C4.37437 12.5113 4.39937 12.391 4.44837 12.2798C4.49737 12.1686 4.56928 12.069 4.65939 11.9875L13.4094 4.03592C13.5689 3.88911 13.7778 3.80762 13.9945 3.80762C14.2113 3.80762 14.4202 3.88911 14.5797 4.03592L23.3406 11.9875C23.4287 12.0706 23.4992 12.1706 23.548 12.2814C23.5969 12.3922 23.6231 12.5117 23.625 12.6328V23.625H16.625Z" fill="#0040DD"/>
<path id="Vector_2" d="M23.625 23.625V12.6328C23.6231 12.5117 23.5969 12.3922 23.548 12.2814C23.4992 12.1706 23.4287 12.0706 23.3406 11.9875L14.5797 4.03592C14.4202 3.88911 14.2113 3.80762 13.9945 3.80762C13.7778 3.80762 13.5689 3.88911 13.4094 4.03592L4.65939 11.9875C4.56928 12.069 4.49737 12.1686 4.44837 12.2798C4.39937 12.391 4.37437 12.5113 4.37501 12.6328V23.625" stroke="#0040DD" stroke-width="1.75" stroke-linecap="round" stroke-linejoin="round"/>
<path id="Vector_3" d="M1.75 23.625H26.25" stroke="#0040DD" stroke-width="1.75" stroke-linecap="round" stroke-linejoin="round"/>
<path id="Vector_4" d="M16.625 23.625V17.5C16.625 17.2679 16.5328 17.0454 16.3687 16.8813C16.2046 16.7172 15.9821 16.625 15.75 16.625H12.25C12.0179 16.625 11.7954 16.7172 11.6313 16.8813C11.4672 17.0454 11.375 17.2679 11.375 17.5V23.625" stroke="#0040DD" stroke-width="1.75" stroke-linecap="round" stroke-linejoin="round"/>
</g>
</svg>
