<svg width="32" height="32" viewBox="0 0 32 32" fill="none" xmlns="http://www.w3.org/2000/svg">
<path opacity="0.2" d="M27 21.5975C24.9013 20.1563 24 17.7388 24 15C24 12.7125 25.46 10.6488 27 9.19002C25.5663 7.83252 23.125 7.00002 21 7.00002C19.1825 6.99579 17.4182 7.6133 16 8.75002C14.6114 7.63662 12.8898 7.02051 11.11 7.00002C6.50001 6.93752 2.88251 10.7875 3.00001 15.3988C3.0502 17.3756 3.49199 19.3228 4.29982 21.1277C5.10766 22.9326 6.26548 24.5594 7.70626 25.9138C8.44897 26.6123 9.43041 27.0009 10.45 27H21.4125C21.957 27.0022 22.4961 26.8924 22.9962 26.6774C23.4964 26.4623 23.947 26.1467 24.32 25.75C26.3013 23.625 27 21.6 27 21.6V21.5975Z" fill="#343330"/>
<path d="M27.9125 21.1988C27.8375 21.0274 27.7163 20.8802 27.5625 20.7738C25.4413 19.3163 25 16.83 25 15C25 12.7913 26.6838 10.8675 27.6875 9.91625C27.7862 9.8228 27.8649 9.7102 27.9186 9.58533C27.9724 9.46046 28.0001 9.32595 28.0001 9.19C28.0001 9.05406 27.9724 8.91954 27.9186 8.79467C27.8649 8.6698 27.7862 8.5572 27.6875 8.46375C26.1025 6.9675 23.4775 6 21 6C19.2203 6.00159 17.4808 6.5291 16 7.51625C14.2727 6.35795 12.1957 5.83776 10.1263 6.04513C8.05688 6.2525 6.12442 7.17448 4.66125 8.6525C3.78655 9.54549 3.10023 10.6052 2.64307 11.7686C2.18591 12.932 1.96722 14.1754 2 15.425C2.04908 17.5342 2.51807 19.6124 3.37958 21.5383C4.24108 23.4641 5.47782 25.1989 7.0175 26.6413C7.94475 27.5173 9.1731 28.0037 10.4488 28H21.4088C22.0907 28.0013 22.7657 27.8625 23.3919 27.5922C24.018 27.3219 24.5819 26.9259 25.0488 26.4288C25.9135 25.4981 26.6615 24.4655 27.2763 23.3538C28.1538 21.75 28.0413 21.5 27.9125 21.1988ZM23.5838 25.0663C23.3046 25.3627 22.9675 25.5985 22.5933 25.7592C22.2191 25.9198 21.8159 26.0018 21.4088 26H10.4488C9.68472 26.0025 8.94898 25.7111 8.39375 25.1863C7.04634 23.9248 5.96382 22.4074 5.20942 20.7228C4.45503 19.0383 4.04388 17.2203 4 15.375C3.97266 14.3946 4.14283 13.4187 4.50037 12.5054C4.85792 11.5921 5.39555 10.76 6.08125 10.0588C6.7219 9.40425 7.48728 8.88483 8.33213 8.53122C9.17697 8.17761 10.0841 7.99698 11 8H11.0975C12.6553 8.01641 14.1622 8.55716 15.375 9.535C15.5524 9.67701 15.7728 9.75438 16 9.75438C16.2272 9.75438 16.4476 9.67701 16.625 9.535C17.8636 8.53575 19.4086 7.99367 21 8C22.5891 8.01845 24.1438 8.46541 25.5 9.29375C23.875 11.1088 23 13.1025 23 15C23 17.9713 23.955 20.3413 25.7725 21.9125C25.2006 23.0649 24.4632 24.1274 23.5838 25.0663ZM16.0288 3.75C16.3061 2.67589 16.9328 1.72451 17.8101 1.04562C18.6875 0.366728 19.7657 -0.00111129 20.875 2.52202e-06H21C21.2652 2.52202e-06 21.5196 0.105359 21.7071 0.292896C21.8946 0.480432 22 0.734786 22 1C22 1.26522 21.8946 1.51957 21.7071 1.70711C21.5196 1.89465 21.2652 2 21 2H20.875C20.2099 1.99994 19.5636 2.22093 19.0377 2.62821C18.5119 3.0355 18.1363 3.60599 17.97 4.25C17.9037 4.50693 17.738 4.727 17.5095 4.86179C17.2809 4.99658 17.0082 5.03506 16.7513 4.96875C16.4943 4.90245 16.2743 4.7368 16.1395 4.50824C16.0047 4.27968 15.9662 4.00693 16.0325 3.75H16.0288Z" fill="#343330"/>
</svg>
