<svg width="24" height="24" viewBox="0 0 24 24" fill="none" xmlns="http://www.w3.org/2000/svg">
<g id="delete-02">
<path id="Vector" d="M17.625 7.125L17.1602 14.6438C17.0414 16.5648 16.9821 17.5253 16.5006 18.2159C16.2625 18.5573 15.956 18.8455 15.6005 19.062C14.8816 19.5 13.9192 19.5 11.9945 19.5C10.0673 19.5 9.10372 19.5 8.38429 19.0612C8.0286 18.8443 7.722 18.5556 7.48401 18.2136C7.00266 17.5219 6.94459 16.5601 6.82846 14.6364L6.375 7.125" stroke="#FF3B30" stroke-width="1.5" stroke-linecap="round"/>
<path id="Vector_2" d="M18.75 7.125H5.25" stroke="#FF3B30" stroke-width="1.5" stroke-linecap="round"/>
<path id="Vector_3" d="M15.0451 7.12497L14.5331 6.06877C14.1929 5.36716 14.0229 5.01636 13.7296 4.79758C13.6645 4.74904 13.5956 4.70587 13.5236 4.66849C13.1987 4.49997 12.8089 4.49997 12.0292 4.49997C11.2299 4.49997 10.8302 4.49997 10.5 4.67556C10.4268 4.71448 10.357 4.75939 10.2912 4.80985C9.9945 5.03749 9.82874 5.40113 9.49723 6.12841L9.04297 7.12497" stroke="#FF3B30" stroke-width="1.5" stroke-linecap="round"/>
<path id="Vector_4" d="M10.123 15.375V10.875" stroke="#FF3B30" stroke-width="1.5" stroke-linecap="round"/>
<path id="Vector_5" d="M13.877 15.375V10.875" stroke="#FF3B30" stroke-width="1.5" stroke-linecap="round"/>
</g>
</svg>
