<svg width="32" height="32" viewBox="0 0 32 32" fill="none" xmlns="http://www.w3.org/2000/svg">
<path opacity="0.2" d="M30 9L26 13C25.4675 21.355 18.49 28 10 28C6 28 5 26.5 5 26.5C5 26.5 9 25 11 22C11 22 4.10625 18 5.0975 7C5.0975 7 10.055 12 16 13V11C16 8.25 18.25 5.96625 21 6C21.9705 6.01127 22.9175 6.29964 23.7296 6.83114C24.5417 7.36264 25.185 8.11514 25.5837 9H30Z" fill="#343330"/>
<path d="M30.9237 8.61753C30.8481 8.43479 30.72 8.27858 30.5555 8.16867C30.3911 8.05876 30.1978 8.00007 30 8.00003H26.1963C25.6645 7.09517 24.9077 6.34332 23.9993 5.81762C23.0909 5.29192 22.062 5.01026 21.0125 5.00003C20.2308 4.98966 19.455 5.13583 18.7306 5.42994C18.0063 5.72405 17.3482 6.16014 16.795 6.71253C16.2249 7.27132 15.7725 7.93853 15.4642 8.67487C15.1559 9.4112 14.9981 10.2018 15 11V11.7613C9.9675 10.4338 5.85125 6.34003 5.8075 6.29628C5.67334 6.16093 5.5033 6.06673 5.3174 6.02479C5.1315 5.98284 4.93748 5.99488 4.7582 6.0595C4.57891 6.12413 4.42183 6.23863 4.30544 6.38953C4.18905 6.54044 4.11821 6.72146 4.10125 6.91128C3.56375 12.885 5.2975 16.8825 6.85125 19.1838C7.60921 20.3215 8.53127 21.3409 9.5875 22.2088C7.67875 24.4 4.68125 25.5513 4.65 25.5638C4.50889 25.6166 4.38155 25.7007 4.2775 25.8097C4.17344 25.9186 4.09535 26.0497 4.04908 26.1931C4.0028 26.3365 3.98953 26.4885 4.01025 26.6378C4.03097 26.787 4.08516 26.9297 4.16875 27.055C4.26125 27.195 4.6375 27.6863 5.55375 28.145C6.68875 28.7125 8.185 29 10 29C18.835 29 26.215 22.1975 26.97 13.445L30.7075 9.70753C30.8473 9.5676 30.9425 9.38935 30.981 9.19533C31.0195 9.00131 30.9995 8.80023 30.9237 8.61753ZM25.2987 12.2938C25.1273 12.4656 25.0242 12.694 25.0088 12.9363C24.5 20.8225 17.91 27 10 27C8.68 27 7.75 26.825 7.0975 26.615C8.5375 25.8338 10.5425 24.49 11.8325 22.555C11.9081 22.4417 11.9597 22.3142 11.9842 22.1802C12.0087 22.0462 12.0056 21.9087 11.975 21.7759C11.9445 21.6432 11.8872 21.5181 11.8065 21.4083C11.7259 21.2986 11.6237 21.2064 11.5063 21.1375C11.49 21.1275 9.89875 20.17 8.44625 17.9763C6.8175 15.5138 6 12.5475 6 9.13628C8 10.7613 11.6563 13.2838 15.8363 13.9863C15.9794 14.01 16.1261 14.0024 16.266 13.9637C16.406 13.9251 16.5358 13.8565 16.6465 13.7627C16.7573 13.6688 16.8462 13.552 16.9073 13.4203C16.9683 13.2886 17 13.1452 17 13V11C16.9989 10.4666 17.1045 9.93831 17.3105 9.44629C17.5166 8.95427 17.819 8.50843 18.2 8.13503C18.565 7.76886 18.9998 7.47972 19.4786 7.28475C19.9574 7.08978 20.4705 6.99296 20.9875 7.00003C22.57 7.02003 24.0487 7.98503 24.6675 9.40128C24.7455 9.57933 24.8737 9.7308 25.0364 9.83714C25.1992 9.94348 25.3894 10.0001 25.5837 10H27.5837L25.2987 12.2938Z" fill="#343330"/>
</svg>
