<svg width="26" height="26" viewBox="0 0 26 26" fill="none" xmlns="http://www.w3.org/2000/svg">
<path d="M14.733 22.8324L20.6483 19.4173C21.2797 19.0527 21.5948 18.8704 21.8244 18.6153C22.0276 18.3897 22.1812 18.1239 22.2751 17.8351C22.3809 17.5095 22.3809 17.1457 22.3809 16.4199V9.57961C22.3809 8.85388 22.3809 8.49006 22.2751 8.16445C22.1812 7.87568 22.0276 7.60968 21.8244 7.38404C21.5958 7.13012 21.2814 6.9486 20.6554 6.58717L14.7319 3.16726C14.1005 2.80269 13.7854 2.62077 13.4497 2.54942C13.1527 2.48629 12.8457 2.48629 12.5487 2.54942C12.213 2.62077 11.8968 2.80269 11.2654 3.16726L5.34899 6.58308C4.71827 6.94723 4.40315 7.12916 4.17367 7.38404C3.97049 7.60968 3.81706 7.87568 3.72323 8.16445C3.61719 8.49082 3.61719 8.85559 3.61719 9.58474V16.4151C3.61719 17.1443 3.61719 17.5088 3.72323 17.8351C3.81706 18.1239 3.97049 18.3897 4.17367 18.6153C4.40329 18.8704 4.71864 19.0527 5.3501 19.4173L11.2654 22.8324C11.8968 23.197 12.213 23.379 12.5487 23.4504C12.8457 23.5135 13.1527 23.5135 13.4497 23.4504C13.7854 23.379 14.1015 23.197 14.733 22.8324Z" stroke="black" stroke-width="2.5" stroke-linecap="round" stroke-linejoin="round"/>
<path d="M9.74902 12.9998C9.74902 14.7947 11.2041 16.2498 12.999 16.2498C14.7939 16.2498 16.249 14.7947 16.249 12.9998C16.249 11.2049 14.7939 9.74978 12.999 9.74978C11.2041 9.74978 9.74902 11.2049 9.74902 12.9998Z" stroke="black" stroke-width="2.5" stroke-linecap="round" stroke-linejoin="round"/>
</svg>
