<svg width="29" height="29" viewBox="0 0 29 29" fill="none" xmlns="http://www.w3.org/2000/svg">
<path fill-rule="evenodd" clip-rule="evenodd" d="M25.093 10.5441C25.0269 10.5399 24.9549 10.54 24.8802 10.54L24.8616 10.54H21.9351C19.5228 10.54 17.4587 12.4388 17.4587 14.915C17.4587 17.3912 19.5228 19.29 21.9351 19.29H24.8616L24.8802 19.29C24.9549 19.29 25.0269 19.2901 25.093 19.2859C26.0728 19.224 26.9394 18.4572 27.0122 17.3863C27.017 17.316 27.017 17.2403 27.0169 17.1702L27.0169 17.1511V12.6789L27.0169 12.6599C27.017 12.5897 27.017 12.514 27.0122 12.4438C26.9394 11.3728 26.0728 10.606 25.093 10.5441ZM21.6756 16.0817C22.2966 16.0817 22.8 15.5593 22.8 14.915C22.8 14.2707 22.2966 13.7483 21.6756 13.7483C21.0545 13.7483 20.5511 14.2707 20.5511 14.915C20.5511 15.5593 21.0545 16.0817 21.6756 16.0817Z" fill="black"/>
<path fill-rule="evenodd" clip-rule="evenodd" d="M24.8795 21.04C25.0534 21.0355 25.1851 21.1966 25.1379 21.3641C24.9037 22.1953 24.532 22.9037 23.9355 23.5002C23.0624 24.3733 21.9553 24.7608 20.5875 24.9447C19.2584 25.1234 17.5601 25.1233 15.4161 25.1233H12.9511C10.8071 25.1233 9.10882 25.1234 7.77974 24.9447C6.41191 24.7608 5.3048 24.3733 4.43171 23.5002C3.55862 22.6271 3.17115 21.52 2.98725 20.1522C2.80856 18.8231 2.80858 17.1249 2.80859 14.9808V14.8492C2.80858 12.7051 2.80856 11.0069 2.98725 9.67781C3.17115 8.30998 3.55862 7.20287 4.43171 6.32978C5.3048 5.45669 6.41191 5.06922 7.77973 4.88532C9.10882 4.70663 10.8071 4.70665 12.9511 4.70667L15.4161 4.70667C17.5601 4.70665 19.2584 4.70663 20.5875 4.88532C21.9553 5.06922 23.0624 5.45669 23.9355 6.32978C24.532 6.92628 24.9037 7.6347 25.1379 8.46588C25.1851 8.63338 25.0534 8.79451 24.8795 8.79L21.9349 8.79001C18.6255 8.79001 15.7086 11.4044 15.7086 14.915C15.7086 18.4256 18.6255 21.04 21.9349 21.04L24.8795 21.04Z" fill="black"/>
</svg>
