<svg width="26" height="26" viewBox="0 0 26 26" fill="none" xmlns="http://www.w3.org/2000/svg">
<path d="M14.2501 23.8333C17.5235 23.8333 19.1602 23.8333 20.3626 23.0965C21.0354 22.6842 21.601 22.1186 22.0133 21.4458C22.7501 20.2435 22.7501 18.6067 22.7501 15.3333V13.1608C22.7501 11.5625 22.7501 10.7634 22.5194 10.0305C22.3884 9.61436 22.2036 9.21717 21.9695 8.84902C21.5573 8.20065 20.9458 7.68612 19.7229 6.65706L18.4726 5.60495C16.3332 3.80463 15.2635 2.90447 14.0417 2.64421C13.355 2.49793 12.6452 2.49791 11.9586 2.64414C10.7368 2.90432 9.66699 3.80441 7.52743 5.60458L6.2777 6.65608C5.05463 7.68514 4.4431 8.19967 4.03081 8.84806C3.79671 9.21622 3.61181 9.61344 3.48081 10.0296C3.25009 10.7625 3.25009 11.5617 3.25008 13.1601L3.25006 15.3333C3.25004 18.6067 3.25003 20.2434 3.98682 21.4458C4.3991 22.1186 4.96475 22.6842 5.63753 23.0965C6.83988 23.8333 8.47661 23.8333 11.7501 23.8333H14.2501Z" stroke="black" stroke-width="2.5" stroke-linejoin="round"/>
<path d="M10.832 19.5H15.1654" stroke="black" stroke-width="2.5" stroke-linecap="round"/>
</svg>
