<svg width="32" height="32" viewBox="0 0 32 32" fill="none" xmlns="http://www.w3.org/2000/svg">
<path opacity="0.2" d="M28.3237 8.94124C28.2468 8.6329 28.0974 8.34734 27.8881 8.10822C27.6788 7.8691 27.4155 7.68331 27.12 7.56624C22.935 5.95624 16 5.99999 16 5.99999C16 5.99999 9.065 5.95624 4.875 7.57249C4.57954 7.68956 4.31623 7.87535 4.1069 8.11447C3.89756 8.35359 3.74822 8.63915 3.67125 8.94749C3.38375 10.0675 3 12.2612 3 16C3 19.7387 3.38375 21.9325 3.67625 23.0587C3.7536 23.3654 3.90258 23.6494 4.11096 23.8873C4.31935 24.1253 4.58119 24.3104 4.875 24.4275C9.065 26.0437 16 26 16 26C16 26 22.935 26.0437 27.125 24.4275C27.4197 24.311 27.6826 24.1262 27.8919 23.8882C28.1012 23.6502 28.2509 23.3659 28.3288 23.0587C28.6213 21.9337 29.005 19.7387 29.005 16C29.005 12.2612 28.6162 10.0675 28.3237 8.94124ZM14 20V12L20 16L14 20Z" fill="#343330"/>
<path d="M20.555 15.1675L14.555 11.1675C14.4044 11.067 14.2293 11.0093 14.0484 11.0005C13.8675 10.9918 13.6877 11.0323 13.528 11.1177C13.3684 11.2032 13.2349 11.3304 13.1419 11.4858C13.0489 11.6412 12.9999 11.8189 13 12V20C12.9999 20.1811 13.0489 20.3588 13.1419 20.5142C13.2349 20.6696 13.3684 20.7968 13.528 20.8823C13.6877 20.9677 13.8675 21.0082 14.0484 20.9995C14.2293 20.9907 14.4044 20.933 14.555 20.8325L20.555 16.8325C20.6922 16.7412 20.8047 16.6175 20.8825 16.4722C20.9603 16.327 21.001 16.1648 21.001 16C21.001 15.8352 20.9603 15.673 20.8825 15.5278C20.8047 15.3826 20.6922 15.2588 20.555 15.1675ZM15 18.1313V13.875L18.1975 16L15 18.1313ZM29.2913 8.69C29.1735 8.22919 28.9478 7.80298 28.6329 7.44654C28.318 7.09011 27.9228 6.81366 27.48 6.64C23.195 4.985 16.375 5 16 5C15.625 5 8.805 4.985 4.52 6.64C4.0772 6.81366 3.68204 7.09011 3.36712 7.44654C3.05219 7.80298 2.82653 8.22919 2.70875 8.69C2.385 9.9375 2 12.2175 2 16C2 19.7825 2.385 22.0625 2.70875 23.31C2.82636 23.771 3.05194 24.1975 3.36687 24.5542C3.68181 24.9108 4.07706 25.1875 4.52 25.3613C8.625 26.945 15.05 27 15.9175 27H16.0825C16.95 27 23.3787 26.945 27.48 25.3613C27.9229 25.1875 28.3182 24.9108 28.6331 24.5542C28.9481 24.1975 29.1736 23.771 29.2913 23.31C29.615 22.06 30 19.7825 30 16C30 12.2175 29.615 9.9375 29.2913 8.69ZM27.355 22.815C27.3169 22.9684 27.243 23.1105 27.1394 23.2298C27.0357 23.3491 26.9053 23.4421 26.7588 23.5013C22.8025 25.0288 16.0737 25.0013 15.9937 25.0013C15.9137 25.0013 9.1975 25.0238 5.24375 23.5013C5.09721 23.4421 4.96678 23.3491 4.86313 23.2298C4.75949 23.1105 4.6856 22.9684 4.6475 22.815C4.35 21.6738 4 19.5713 4 16C4 12.4288 4.35 10.3263 4.645 9.19125C4.68239 9.03698 4.75596 8.89382 4.85965 8.77362C4.96333 8.65342 5.09413 8.55963 5.24125 8.5C9.1975 6.9775 15.925 7 16.0063 7C16.0875 7 22.8025 6.9775 26.7563 8.5C26.9028 8.55915 27.0332 8.65217 27.1369 8.77146C27.2405 8.89074 27.3144 9.03289 27.3525 9.18625C27.65 10.3263 28 12.4288 28 16C28 19.5713 27.65 21.6738 27.355 22.8088V22.815Z" fill="#343330"/>
</svg>
